<svg id="Layer_1" data-name="Layer 1" xmlns="http://www.w3.org/2000/svg" viewBox="0 0 362.8 411.4"><defs><style>.cls-1{fill:#e44d26;}.cls-2{fill:#f16529;}.cls-3{fill:#ebebeb;}.cls-4{fill:#fff;}</style></defs><path class="cls-1" d="M107.6,420.7,74.6,50.3H437.4l-33,370.2L255.7,461.7" transform="translate(-74.6 -50.3)"/><path class="cls-2" d="M256,430.75V81.25H404.3l-28.3,316" transform="translate(-74.6 -50.3)"/><path class="cls-3" d="M142,127.35H256v45.4H191.8l4.2,46.5h60v45.3H154.4m2,22.8H202l3.2,36.3,50.8,13.6v47.4l-93.2-26" transform="translate(-74.6 -50.3)"/><path class="cls-4" d="M369.6,127.45H255.8v45.4H365.4m-4.1,46.5H255.8v45.4h56l-5.3,59-50.7,13.6v47.2l93-25.8" transform="translate(-74.6 -50.3)"/></svg>