<svg id="svg64" xmlns="http://www.w3.org/2000/svg" viewBox="0 0 397.32 450.17"><defs><style>.cls-1{fill:#fff;}.cls-2{fill:#eaebec;}.cls-3{fill:#f0be25;}.cls-4{fill:#e4a126;}</style></defs><path id="path118" class="cls-1" d="M1.33,55.15l.07,5c0,2.75,8,93.8,17.7,202.33L36.74,459.81,116,482c43.61,12.22,80.19,22.27,81.29,22.34s38.17-9.87,82.37-22.11c70.87-19.62,80.44-22.58,80.95-25,.71-3.38,35.41-394.9,35.38-399.08l0-3H1.33Z" transform="translate(0 -54.67)"/><path id="path88" class="cls-2" d="M116.67,482.86l-80-22.36-1.05-5.92C34.69,449.32,0,61.85,0,56.73c0-1.85,20.26-2.06,198.67-2.06,188.32,0,198.66.12,198.65,2.33-.06,9.55-36,402.16-36.86,402.94-1.11,1-155.95,44.13-161.13,44.89-1.46.22-38.66-9.67-82.66-22Zm132.44-79c26.89-7.42,49.28-13.87,49.75-14.33s3.62-32.35,7-70.85,6.47-72.55,6.89-75.67l.76-5.67H197.33v49.34h62.72l-.62,3c-.35,1.65-1.68,15.83-3,31.51-1.36,16.61-3,29.15-3.87,30s-13.62,4.76-28.4,8.7l-26.86,7.15V392.2c0,17.16.46,25.13,1.45,25.13.79,0,23.44-6.06,50.33-13.48Zm63.62-197.52c-.88-6.53-8.73-94.16-8.73-97.46,0-2-4.62-2.2-52.67-2.2H198.67v51.58l23.66.92c13,.5,26.72,1.26,30.45,1.69l6.77.79,1.65,20.17c.9,11.1,2,22.43,2.39,25.18l.75,5H313.5Z" transform="translate(0 -54.67)"/><path id="path80" class="cls-3" d="M116,482l-79.3-22.2L19.1,262.48C9.4,154,1.43,62.9,1.4,60.15l-.07-5H396l0,3c0,4.18-34.68,395.7-35.38,399.08-.51,2.43-10.08,5.39-80.95,25-44.2,12.24-81.27,22.19-82.37,22.11S159.65,494.22,116,482Zm133.13-76.74c27.41-7.62,50.23-14.48,50.7-15.25s3.75-34.28,7.28-74.47,6.7-74.12,7.05-75.4c.61-2.21-4.05-2.34-84.51-2.34H144.54l3.62-38.33c2-21.08,3.67-38.39,3.73-38.46s12.56-.46,27.78-.88c25-.69,76.4,1.3,78.12,3,.65.64,4.88,42.15,4.88,47.82,0,2.79.37,2.83,25.83,2.83h25.84l-.61-5.66c-.33-3.12-2.52-27.27-4.86-53.67l-4.26-48L205,106.14c-79.27-.28-99.64,0-99.65,1.33,0,.92-.58,6.78-1.29,13-1.7,15.08-14.7,160.82-14.7,164.85v3.15H258.9l-.75,5c-.42,2.75-1.74,16.7-2.93,31s-2.56,26.37-3,26.82c-1.24,1.19-51.12,14.52-54.23,14.49-1.45,0-14.33-3.23-28.63-7.15l-26-7.11-1-11.19c-.52-6.16-1.32-14.94-1.77-19.53l-.82-8.33H89.33l.06,5c.1,9.35,6.17,72.33,7,73.21S194.35,419,197.33,419.06c1.1,0,24.43-6.17,51.84-13.79Z" transform="translate(0 -54.67)"/><path id="path78" class="cls-4" d="M116,482l-79.3-22.2L19.1,262.48C9.4,154,1.43,62.9,1.4,60.15l-.07-5H396l0,3c0,4.18-34.68,395.7-35.38,399.08-.51,2.43-10.08,5.39-80.95,25-44.2,12.24-81.27,22.19-82.37,22.11S159.65,494.22,116,482Zm147.87-29.7c34.88-9.62,64.08-18.17,64.88-19C330,432,360.16,101.86,360,90.81l0-3.66H198.67v18.66H152c-36.44,0-46.67.37-46.68,1.67,0,.92-.58,6.77-1.29,13-1.7,15.08-14.7,160.82-14.7,164.85v3.15H198.67v38.67c0,30.05-.37,38.66-1.67,38.64-.92,0-13.37-3.23-27.67-7.15l-26-7.11-1-11.19c-.52-6.16-1.32-14.94-1.77-19.53l-.82-8.33H89.33l.06,5c.16,14.3,6.35,72.68,7.8,73.57.88.55,24.07,7.21,51.54,14.81l49.94,13.82v25.07c0,13.78.41,25.06.91,25.06s29.45-7.87,64.33-17.5ZM148,199.84c1.92-20.89,3.75-38.21,4.07-38.5s10.93-.81,23.58-1.16l23-.64v78.27H144.54Z" transform="translate(0 -54.67)"/></svg>